<!--?xml version="1.0" standalone="no"?-->
              <svg id="sw-js-blob-svg" viewBox="0 0 100 100" xmlns="http://www.w3.org/2000/svg"  version="1.1">
                    <defs> 
                        <linearGradient id="sw-gradient" x1="0" x2="1" y1="1" y2="0">
                            <stop id="stop1" stop-color="rgba(248, 117, 55, 1)" offset="0%"></stop>
                            <stop id="stop2" stop-color="rgba(251, 168, 31, 1)" offset="100%"></stop>
                        </linearGradient>
                    </defs>
                <path fill="url(#sw-gradient)" d="M18.3,-33.2C23.6,-28.7,27.8,-23.5,29.3,-17.9C30.8,-12.3,29.7,-6.1,31.3,0.9C32.8,7.9,36.9,15.8,35,20.8C33.1,25.8,25.2,27.9,18.4,28.2C11.6,28.5,5.8,26.9,-1.2,29C-8.3,31.1,-16.5,37,-21.3,35.5C-26,34.1,-27.2,25.3,-30.2,18.1C-33.1,11,-37.7,5.5,-39.3,-0.9C-40.9,-7.3,-39.5,-14.7,-34.9,-18.9C-30.3,-23.1,-22.5,-24.2,-16.1,-28.1C-9.7,-32,-4.9,-38.7,0.8,-40.1C6.5,-41.5,13,-37.7,18.3,-33.2Z" width="100%" height="100%" transform="translate(50 50)" stroke-width="0" style="transition: all 0.3s ease 0s;"></path>
              </svg>